G04 #@! TF.FileFunction,Copper,L2,Bot,Signal*
%FSLAX46Y46*%
G04 Gerber Fmt 4.6, Leading zero omitted, Abs format (unit mm)*
G04 Created by KiCad (PCBNEW 4.0.4-stable) date 09/25/16 23:13:10*
%MOMM*%
%LPD*%
G01*
G04 APERTURE LIST*
%ADD10C,0.100000*%
%ADD11R,2.247900X2.247900*%
%ADD12C,3.515360*%
%ADD13C,1.524000*%
%ADD14C,1.600200*%
%ADD15C,1.574800*%
%ADD16R,1.676400X1.676400*%
%ADD17C,1.676400*%
%ADD18R,2.799080X2.799080*%
%ADD19O,2.641600X1.320800*%
%ADD20C,1.117600*%
%ADD21C,1.320800*%
%ADD22C,0.400000*%
%ADD23C,0.600000*%
%ADD24C,0.380000*%
%ADD25C,0.250000*%
G04 APERTURE END LIST*
D10*
D11*
X90170000Y-118110000D03*
D12*
X82550000Y-118110000D03*
X86360000Y-123190000D03*
X86360000Y-114300000D03*
D11*
X120650000Y-138430000D03*
D12*
X113030000Y-138430000D03*
X116840000Y-143510000D03*
X116840000Y-134620000D03*
D13*
X146050000Y-142240000D03*
X143510000Y-142240000D03*
X146050000Y-139700000D03*
X143510000Y-139700000D03*
X146050000Y-137160000D03*
X143510000Y-137160000D03*
X146050000Y-134620000D03*
X143510000Y-134620000D03*
X146050000Y-132080000D03*
X143510000Y-132080000D03*
D11*
X134620000Y-138430000D03*
D12*
X127000000Y-138430000D03*
X130810000Y-143510000D03*
X130810000Y-134620000D03*
D14*
X101600000Y-95250000D03*
X101600000Y-90170000D03*
X101600000Y-114300000D03*
X104140000Y-114300000D03*
D15*
X92710000Y-101600000D03*
X90170000Y-101600000D03*
D14*
X120650000Y-105410000D03*
X120650000Y-102870000D03*
D15*
X137795000Y-129540000D03*
X137795000Y-127000000D03*
X137160000Y-143510000D03*
X139700000Y-143510000D03*
D16*
X85130640Y-66662300D03*
D17*
X87630000Y-66662300D03*
X90129360Y-66662300D03*
D18*
X92128340Y-73660000D03*
X83131660Y-73660000D03*
D19*
X130810000Y-119380000D03*
X123190000Y-119380000D03*
X123190000Y-114300000D03*
X130810000Y-114300000D03*
D16*
X137835640Y-84442300D03*
D17*
X140335000Y-84442300D03*
X142834360Y-84442300D03*
D18*
X144833340Y-91440000D03*
X135836660Y-91440000D03*
D11*
X105410000Y-138430000D03*
D12*
X97790000Y-138430000D03*
X101600000Y-143510000D03*
X101600000Y-134620000D03*
D16*
X85130640Y-45072300D03*
D17*
X87630000Y-45072300D03*
X90129360Y-45072300D03*
D18*
X92128340Y-52070000D03*
X83131660Y-52070000D03*
D16*
X85130640Y-84442300D03*
D17*
X87630000Y-84442300D03*
X90129360Y-84442300D03*
D18*
X92128340Y-91440000D03*
X83131660Y-91440000D03*
D20*
X95250000Y-128270000D03*
X95250000Y-125730000D03*
X95250000Y-123190000D03*
D19*
X110490000Y-48260000D03*
X110490000Y-50800000D03*
X110490000Y-53340000D03*
X110490000Y-55880000D03*
X118110000Y-55880000D03*
X118110000Y-53340000D03*
X118110000Y-50800000D03*
X118110000Y-48260000D03*
D16*
X137200640Y-66662300D03*
D17*
X139700000Y-66662300D03*
X142199360Y-66662300D03*
D18*
X144198340Y-73660000D03*
X135201660Y-73660000D03*
D21*
X121920000Y-92710000D03*
X123190000Y-94615000D03*
X124460000Y-92710000D03*
X132080000Y-105410000D03*
X130810000Y-107315000D03*
X129540000Y-105410000D03*
X129540000Y-100330000D03*
X130810000Y-102235000D03*
X132080000Y-100330000D03*
D20*
X103251000Y-127254000D03*
X105791000Y-127254000D03*
X108331000Y-127254000D03*
D11*
X90170000Y-138430000D03*
D12*
X82550000Y-138430000D03*
X86360000Y-143510000D03*
X86360000Y-134620000D03*
D20*
X119888000Y-129413000D03*
X117348000Y-129413000D03*
X114808000Y-129413000D03*
D16*
X137200640Y-45072300D03*
D17*
X139700000Y-45072300D03*
X142199360Y-45072300D03*
D18*
X144198340Y-52070000D03*
X135201660Y-52070000D03*
D20*
X143510000Y-113030000D03*
X143510000Y-115570000D03*
X143510000Y-118110000D03*
D22*
X115760000Y-115824000D03*
X121285000Y-129222000D03*
X116713000Y-97663000D03*
X112776000Y-97790000D03*
X111506000Y-70231000D03*
X116078000Y-70231000D03*
X108966000Y-79629000D03*
X108966000Y-85471000D03*
D23*
X125064500Y-69126200D03*
X124996900Y-77827500D03*
X115051100Y-96458400D03*
X106790100Y-106680000D03*
X123745900Y-75489500D03*
X124053100Y-67433000D03*
X127320000Y-57155500D03*
X91181300Y-104757900D03*
X104460000Y-117265400D03*
X115379200Y-67022400D03*
X106659800Y-71149400D03*
X106659800Y-78110000D03*
X100929700Y-101858800D03*
X105384600Y-101731900D03*
X126836900Y-101271800D03*
X130392000Y-63299700D03*
D22*
X129217000Y-49571300D03*
X135890000Y-118887000D03*
X101280000Y-63515800D03*
X118536000Y-100965000D03*
X95287700Y-93715300D03*
X129217000Y-72438700D03*
X110740000Y-112319000D03*
D23*
X101277400Y-77267400D03*
X127349400Y-70052300D03*
X109474800Y-77421400D03*
X113217500Y-71189400D03*
X131621800Y-64932900D03*
X118462600Y-79116600D03*
X102178400Y-86198000D03*
X107405600Y-102828800D03*
X103213600Y-69754400D03*
X96348400Y-109337500D03*
X116772000Y-81317100D03*
X109731900Y-84824600D03*
X116738800Y-74814400D03*
X99645100Y-67293500D03*
X109080600Y-76676800D03*
X97106800Y-74428400D03*
X110285200Y-108980200D03*
X108217000Y-81256200D03*
X113202700Y-82703300D03*
X99072000Y-47465300D03*
X121775500Y-104051100D03*
X109629300Y-101248700D03*
X120912100Y-113103300D03*
X125695300Y-92953000D03*
X110700000Y-90823700D03*
X126185400Y-75702500D03*
X106908100Y-87148600D03*
X125884300Y-69576500D03*
X109529200Y-113144300D03*
X108374800Y-77916400D03*
X113408500Y-59208100D03*
X130199500Y-65215800D03*
X105182300Y-67688800D03*
X104851500Y-103815400D03*
X131538800Y-65866200D03*
X143341000Y-78763000D03*
X115056400Y-85448100D03*
X107405200Y-108224600D03*
X107115100Y-83057400D03*
X99433500Y-54630100D03*
X130206400Y-86386300D03*
X122870000Y-74915200D03*
X113433700Y-108139600D03*
X121032500Y-114340700D03*
X121550200Y-110918800D03*
X110186000Y-107429700D03*
X128559400Y-47514500D03*
X124528000Y-90879600D03*
X107647000Y-89308500D03*
X101684100Y-122549800D03*
X136502400Y-68171200D03*
X136292100Y-70028600D03*
X129217400Y-57144400D03*
X133886300Y-110591100D03*
X113919200Y-114807100D03*
D24*
X117094000Y-117158000D02*
X115760000Y-115824000D01*
X117094000Y-125032000D02*
X117094000Y-117158000D01*
X121285000Y-129222000D02*
X117094000Y-125032000D01*
X143510000Y-132080000D02*
X146050000Y-132080000D01*
X112903000Y-97663000D02*
X116713000Y-97663000D01*
X112776000Y-97790000D02*
X112903000Y-97663000D01*
X116078000Y-70231000D02*
X111506000Y-70231000D01*
X108966000Y-85471000D02*
X108966000Y-79629000D01*
X143510000Y-142240000D02*
X146050000Y-142240000D01*
D25*
X123409600Y-58639600D02*
X118110000Y-53340000D01*
X123409600Y-67693300D02*
X123409600Y-58639600D01*
X124842500Y-69126200D02*
X123409600Y-67693300D01*
X125064500Y-69126200D02*
X124842500Y-69126200D01*
X105351100Y-91498900D02*
X106762400Y-91498900D01*
X101600000Y-95250000D02*
X105351100Y-91498900D01*
X114261500Y-88562900D02*
X124996900Y-77827500D01*
X107474900Y-88562900D02*
X114261500Y-88562900D01*
X106762400Y-89275400D02*
X107474900Y-88562900D01*
X106762400Y-91498900D02*
X106762400Y-89275400D01*
X111721900Y-96458400D02*
X115051100Y-96458400D01*
X106762400Y-91498900D02*
X111721900Y-96458400D01*
X123190000Y-119380000D02*
X123190000Y-118394300D01*
X124053100Y-60422400D02*
X124053100Y-67433000D01*
X127320000Y-57155500D02*
X124053100Y-60422400D01*
X123745900Y-77651300D02*
X123745900Y-75489500D01*
X114882100Y-86515100D02*
X123745900Y-77651300D01*
X105254900Y-86515100D02*
X114882100Y-86515100D01*
X101600000Y-90170000D02*
X105254900Y-86515100D01*
X122097100Y-118394300D02*
X123190000Y-118394300D01*
X111808200Y-108105400D02*
X122097100Y-118394300D01*
X108215500Y-108105400D02*
X111808200Y-108105400D01*
X106790100Y-106680000D02*
X108215500Y-108105400D01*
X100474600Y-91295400D02*
X101600000Y-90170000D01*
X100474600Y-96974100D02*
X100474600Y-91295400D01*
X103852600Y-100352100D02*
X100474600Y-96974100D01*
X103852600Y-103742500D02*
X103852600Y-100352100D01*
X106790100Y-106680000D02*
X103852600Y-103742500D01*
X100426600Y-114300000D02*
X101600000Y-114300000D01*
X91181300Y-105054700D02*
X100426600Y-114300000D01*
X91181300Y-104757900D02*
X91181300Y-105054700D01*
X104140000Y-116945400D02*
X104140000Y-114300000D01*
X104460000Y-117265400D02*
X104140000Y-116945400D01*
X110786800Y-67022400D02*
X115379200Y-67022400D01*
X106659800Y-71149400D02*
X110786800Y-67022400D01*
X98670900Y-86098900D02*
X106659800Y-78110000D01*
X98670900Y-106496700D02*
X98670900Y-86098900D01*
X104140000Y-111965800D02*
X98670900Y-106496700D01*
X104140000Y-114300000D02*
X104140000Y-111965800D01*
X97218400Y-94551600D02*
X90170000Y-101600000D01*
X97218400Y-93271000D02*
X97218400Y-94551600D01*
X93662600Y-89715200D02*
X97218400Y-93271000D01*
X91222200Y-89715200D02*
X93662600Y-89715200D01*
X86294200Y-84787200D02*
X91222200Y-89715200D01*
X86294200Y-72003000D02*
X86294200Y-84787200D01*
X83967000Y-69675800D02*
X86294200Y-72003000D01*
X83967000Y-61597400D02*
X83967000Y-69675800D01*
X87630000Y-57934400D02*
X83967000Y-61597400D01*
X87630000Y-45072300D02*
X87630000Y-57934400D01*
X109062700Y-105410000D02*
X105384600Y-101731900D01*
X120650000Y-105410000D02*
X109062700Y-105410000D01*
X100929700Y-105330800D02*
X100929700Y-101858800D01*
X105309300Y-109710400D02*
X100929700Y-105330800D01*
X105309300Y-125195700D02*
X105309300Y-109710400D01*
X103251000Y-127254000D02*
X105309300Y-125195700D01*
X134848400Y-93260300D02*
X126836900Y-101271800D01*
X137338400Y-93260300D02*
X134848400Y-93260300D01*
X143997900Y-86600800D02*
X137338400Y-93260300D01*
X143997900Y-78515100D02*
X143997900Y-86600800D01*
X136136700Y-70653900D02*
X143997900Y-78515100D01*
X136020400Y-70653900D02*
X136136700Y-70653900D01*
X132247100Y-66880600D02*
X136020400Y-70653900D01*
X132247100Y-64673800D02*
X132247100Y-66880600D01*
X130873000Y-63299700D02*
X132247100Y-64673800D01*
X130392000Y-63299700D02*
X130873000Y-63299700D01*
D24*
X146685000Y-127000000D02*
X147955000Y-128270000D01*
X137795000Y-127000000D02*
X146685000Y-127000000D01*
X132093000Y-85077300D02*
X132080000Y-85090000D01*
X85130600Y-42585600D02*
X83820000Y-41275000D01*
X85130600Y-45072300D02*
X85130600Y-42585600D01*
X127000000Y-138430000D02*
X134620000Y-138430000D01*
X137160000Y-138430000D02*
X134620000Y-138430000D01*
X140970000Y-134620000D02*
X137160000Y-138430000D01*
X143510000Y-134620000D02*
X140970000Y-134620000D01*
X137160000Y-140970000D02*
X137160000Y-143510000D01*
X134620000Y-138430000D02*
X137160000Y-140970000D01*
X146050000Y-137160000D02*
X147955000Y-137160000D01*
X146050000Y-137160000D02*
X146050000Y-134620000D01*
X147955000Y-137160000D02*
X147955000Y-137795000D01*
X79375000Y-146685000D02*
X79375000Y-138430000D01*
X147955000Y-146685000D02*
X79375000Y-146685000D01*
X147955000Y-137795000D02*
X147955000Y-146685000D01*
X79375000Y-41275000D02*
X83820000Y-41275000D01*
X79375000Y-100330000D02*
X79375000Y-41275000D01*
X147955000Y-41275000D02*
X147955000Y-128270000D01*
X137211000Y-41275000D02*
X147955000Y-41275000D01*
X146050000Y-134620000D02*
X143510000Y-134620000D01*
X82550000Y-138430000D02*
X79375000Y-138430000D01*
X134620000Y-85077300D02*
X132093000Y-85077300D01*
X137795000Y-121920000D02*
X137795000Y-127000000D01*
X90170000Y-138430000D02*
X82550000Y-138430000D01*
X105410000Y-138430000D02*
X97790000Y-138430000D01*
X140335000Y-84442300D02*
X137836000Y-84442300D01*
X137201000Y-85077300D02*
X134620000Y-85077300D01*
X137836000Y-84442700D02*
X137201000Y-85077300D01*
X130810000Y-114300000D02*
X131445000Y-113665000D01*
X130810000Y-113030000D02*
X131445000Y-113665000D01*
X130810000Y-109220000D02*
X130810000Y-113030000D01*
X122555000Y-100965000D02*
X130810000Y-109220000D01*
X118936000Y-100965000D02*
X122555000Y-100965000D01*
X137795000Y-120015000D02*
X137795000Y-121920000D01*
X136044000Y-118264000D02*
X137795000Y-120015000D01*
X131445000Y-113665000D02*
X136044000Y-118264000D01*
X136044000Y-118733000D02*
X135890000Y-118887000D01*
X136044000Y-118264000D02*
X136044000Y-118733000D01*
X97790000Y-138430000D02*
X90170000Y-138430000D01*
X118745000Y-100965000D02*
X118536000Y-100965000D01*
X134620000Y-85090000D02*
X118745000Y-100965000D01*
X134620000Y-85077300D02*
X134620000Y-85090000D01*
X87503000Y-93853000D02*
X95150000Y-93853000D01*
X82677000Y-98679000D02*
X87503000Y-93853000D01*
X82677000Y-100330000D02*
X82677000Y-98679000D01*
X79375000Y-100330000D02*
X82677000Y-100330000D01*
X95150000Y-93853000D02*
X96647000Y-93853000D01*
X95150000Y-93853000D02*
X95287700Y-93715300D01*
X117221000Y-100965000D02*
X117158000Y-101028000D01*
X118536000Y-100965000D02*
X117221000Y-100965000D01*
X104775000Y-72390000D02*
X128270000Y-72390000D01*
X101600000Y-69215000D02*
X104775000Y-72390000D01*
X101600000Y-63515800D02*
X101600000Y-69215000D01*
X132093000Y-84442300D02*
X132093000Y-85077300D01*
X132080000Y-84455000D02*
X132093000Y-84442300D01*
X132080000Y-76200000D02*
X132080000Y-84455000D01*
X128270000Y-72390000D02*
X132080000Y-76200000D01*
X129169000Y-72390000D02*
X129217000Y-72438700D01*
X128270000Y-72390000D02*
X129169000Y-72390000D01*
X125730000Y-123190000D02*
X125108000Y-123812000D01*
X132080000Y-123190000D02*
X125730000Y-123190000D01*
X133350000Y-121920000D02*
X132080000Y-123190000D01*
X137795000Y-121920000D02*
X133350000Y-121920000D01*
X123190000Y-125730000D02*
X123190000Y-138430000D01*
X125108000Y-123812000D02*
X123190000Y-125730000D01*
X110836000Y-112414000D02*
X110740000Y-112319000D01*
X113179000Y-112414000D02*
X110836000Y-112414000D01*
X114198000Y-113434000D02*
X113179000Y-112414000D01*
X114929000Y-113434000D02*
X114198000Y-113434000D01*
X121429000Y-119933000D02*
X114929000Y-113434000D01*
X121429000Y-120132000D02*
X121429000Y-119933000D01*
X125108000Y-123812000D02*
X121429000Y-120132000D01*
X127000000Y-138430000D02*
X123190000Y-138430000D01*
X123190000Y-138430000D02*
X120650000Y-138430000D01*
X101600000Y-41275000D02*
X101600000Y-63515800D01*
X101600000Y-63515800D02*
X101280000Y-63515800D01*
X137201000Y-41275000D02*
X137211000Y-41275000D01*
X137211000Y-41285200D02*
X137201000Y-41275000D01*
X137211000Y-41275000D02*
X137211000Y-41285200D01*
X137201000Y-45072300D02*
X137200600Y-45072300D01*
X137201000Y-41275000D02*
X137201000Y-45072300D01*
X131423000Y-49571300D02*
X129217000Y-49571300D01*
X135922000Y-45072300D02*
X131423000Y-49571300D01*
X137200600Y-45072300D02*
X135922000Y-45072300D01*
X120650000Y-138430000D02*
X113030000Y-138430000D01*
X113030000Y-138430000D02*
X105410000Y-138430000D01*
X143510000Y-139700000D02*
X146050000Y-139700000D01*
X146050000Y-139700000D02*
X146050000Y-137160000D01*
X143510000Y-134620000D02*
X143510000Y-137160000D01*
X143510000Y-137160000D02*
X143510000Y-139700000D01*
X79375000Y-138430000D02*
X79375000Y-118110000D01*
X79375000Y-118110000D02*
X79375000Y-100330000D01*
X90170000Y-118110000D02*
X82550000Y-118110000D01*
X82550000Y-118110000D02*
X79375000Y-118110000D01*
X147955000Y-128270000D02*
X147955000Y-137160000D01*
X147955000Y-137160000D02*
X147955000Y-137795000D01*
X83820000Y-41275000D02*
X101600000Y-41275000D01*
X101600000Y-41275000D02*
X137201000Y-41275000D01*
X137836000Y-84442700D02*
X137836000Y-84442500D01*
X137836000Y-84442500D02*
X137836000Y-84442700D01*
X137836000Y-84442300D02*
X137836000Y-84442400D01*
X137836000Y-84442400D02*
X137836000Y-84442500D01*
X137836000Y-84442500D02*
X137836000Y-84442400D01*
X137836000Y-84442400D02*
X137836000Y-84442300D01*
X137836000Y-84442300D02*
X137835600Y-84442300D01*
D25*
X108786900Y-77267400D02*
X101277400Y-77267400D01*
X108940900Y-77421400D02*
X108786900Y-77267400D01*
X109474800Y-77421400D02*
X108940900Y-77421400D01*
X85130600Y-66662300D02*
X86294100Y-66662300D01*
X98220500Y-78090600D02*
X99043700Y-77267400D01*
X98220500Y-108525000D02*
X98220500Y-78090600D01*
X102777000Y-113081500D02*
X98220500Y-108525000D01*
X102777000Y-118203000D02*
X102777000Y-113081500D01*
X95250000Y-125730000D02*
X102777000Y-118203000D01*
X101277400Y-77267400D02*
X99043700Y-77267400D01*
X86294100Y-67025900D02*
X86294100Y-66662300D01*
X88834800Y-69566600D02*
X86294100Y-67025900D01*
X91342900Y-69566600D02*
X88834800Y-69566600D01*
X99043700Y-77267400D02*
X91342900Y-69566600D01*
X126212300Y-71189400D02*
X127349400Y-70052300D01*
X113217500Y-71189400D02*
X126212300Y-71189400D01*
X131578400Y-64932900D02*
X131621800Y-64932900D01*
X130649900Y-65861400D02*
X131578400Y-64932900D01*
X130649900Y-66751800D02*
X130649900Y-65861400D01*
X127349400Y-70052300D02*
X130649900Y-66751800D01*
X118004900Y-79116600D02*
X118462600Y-79116600D01*
X113788700Y-83332800D02*
X118004900Y-79116600D01*
X112916500Y-83332800D02*
X113788700Y-83332800D01*
X109610300Y-80026600D02*
X112916500Y-83332800D01*
X109610300Y-79446200D02*
X109610300Y-80026600D01*
X108972700Y-78808600D02*
X109610300Y-79446200D01*
X102178400Y-85602900D02*
X102178400Y-86198000D01*
X108972700Y-78808600D02*
X102178400Y-85602900D01*
X110134400Y-77646900D02*
X108972700Y-78808600D01*
X110134400Y-76846200D02*
X110134400Y-77646900D01*
X109217400Y-75929200D02*
X110134400Y-76846200D01*
X105519500Y-75929200D02*
X109217400Y-75929200D01*
X96252600Y-66662300D02*
X105519500Y-75929200D01*
X90129400Y-66662300D02*
X96252600Y-66662300D01*
X123701000Y-92710000D02*
X124460000Y-92710000D01*
X115839900Y-100571100D02*
X123701000Y-92710000D01*
X130810000Y-119380000D02*
X129163900Y-119380000D01*
X123190000Y-103811300D02*
X123190000Y-114300000D01*
X121122800Y-101744100D02*
X123190000Y-103811300D01*
X117012900Y-101744100D02*
X121122800Y-101744100D01*
X115839900Y-100571100D02*
X117012900Y-101744100D01*
X124836100Y-115052200D02*
X129163900Y-119380000D01*
X124836100Y-114300000D02*
X124836100Y-115052200D01*
X123190000Y-114300000D02*
X124836100Y-114300000D01*
X107405600Y-102588100D02*
X107405600Y-102828800D01*
X109422600Y-100571100D02*
X107405600Y-102588100D01*
X115839900Y-100571100D02*
X109422600Y-100571100D01*
X105283700Y-71824500D02*
X103213600Y-69754400D01*
X129444900Y-71824500D02*
X105283700Y-71824500D01*
X142062700Y-84442300D02*
X129444900Y-71824500D01*
X142834400Y-84442300D02*
X142062700Y-84442300D01*
X97694000Y-107991900D02*
X96348400Y-109337500D01*
X97694000Y-93071900D02*
X97694000Y-107991900D01*
X91923100Y-87301000D02*
X97694000Y-93071900D01*
X90488700Y-87301000D02*
X91923100Y-87301000D01*
X87630000Y-84442300D02*
X90488700Y-87301000D01*
X113264500Y-84824600D02*
X109731900Y-84824600D01*
X116772000Y-81317100D02*
X113264500Y-84824600D01*
X99645100Y-68780700D02*
X99645100Y-67293500D01*
X105678800Y-74814400D02*
X99645100Y-68780700D01*
X116738800Y-74814400D02*
X105678800Y-74814400D01*
X102284400Y-74428400D02*
X97106800Y-74428400D01*
X104532800Y-76676800D02*
X102284400Y-74428400D01*
X109080600Y-76676800D02*
X104532800Y-76676800D01*
X110164600Y-124769600D02*
X110164600Y-109100800D01*
X114808000Y-129413000D02*
X110164600Y-124769600D01*
X110164600Y-109100800D02*
X110285200Y-108980200D01*
X107395800Y-109100800D02*
X110164600Y-109100800D01*
X102026400Y-103731400D02*
X107395800Y-109100800D01*
X102026400Y-100138400D02*
X102026400Y-103731400D01*
X99571600Y-97683600D02*
X102026400Y-100138400D01*
X99571600Y-89716600D02*
X99571600Y-97683600D01*
X108032000Y-81256200D02*
X99571600Y-89716600D01*
X108217000Y-81256200D02*
X108032000Y-81256200D01*
X113202700Y-79277600D02*
X113202700Y-82703300D01*
X109305000Y-75379900D02*
X113202700Y-79277600D01*
X105607400Y-75379900D02*
X109305000Y-75379900D01*
X98807000Y-68579500D02*
X105607400Y-75379900D01*
X98807000Y-47730300D02*
X98807000Y-68579500D01*
X99072000Y-47465300D02*
X98807000Y-47730300D01*
X112431700Y-104051100D02*
X109629300Y-101248700D01*
X121775500Y-104051100D02*
X112431700Y-104051100D01*
X121775500Y-110259800D02*
X121775500Y-104051100D01*
X121775600Y-110259800D02*
X121775500Y-110259800D01*
X122175500Y-110659700D02*
X121775600Y-110259800D01*
X122175500Y-111839900D02*
X122175500Y-110659700D01*
X120912100Y-113103300D02*
X122175500Y-111839900D01*
X111416400Y-91540100D02*
X110700000Y-90823700D01*
X124698300Y-91540100D02*
X111416400Y-91540100D01*
X125695300Y-92537100D02*
X124698300Y-91540100D01*
X125695300Y-92953000D02*
X125695300Y-92537100D01*
X124371500Y-77516400D02*
X126185400Y-75702500D01*
X124371500Y-77662600D02*
X124371500Y-77516400D01*
X114885500Y-87148600D02*
X124371500Y-77662600D01*
X106908100Y-87148600D02*
X114885500Y-87148600D01*
X112453600Y-52763600D02*
X110490000Y-50800000D01*
X112453600Y-59140200D02*
X112453600Y-52763600D01*
X123065000Y-69751600D02*
X112453600Y-59140200D01*
X125709200Y-69751600D02*
X123065000Y-69751600D01*
X125884300Y-69576500D02*
X125709200Y-69751600D01*
X116463900Y-56152700D02*
X116463900Y-55880000D01*
X113408500Y-59208100D02*
X116463900Y-56152700D01*
X118110000Y-55880000D02*
X116463900Y-55880000D01*
X101576000Y-105191100D02*
X109529200Y-113144300D01*
X101576000Y-101114200D02*
X101576000Y-105191100D01*
X99121200Y-98659400D02*
X101576000Y-101114200D01*
X99121200Y-87170000D02*
X99121200Y-98659400D01*
X108374800Y-77916400D02*
X99121200Y-87170000D01*
X106543000Y-66328100D02*
X105182300Y-67688800D01*
X117393300Y-66328100D02*
X106543000Y-66328100D01*
X121267100Y-70201900D02*
X117393300Y-66328100D01*
X126219500Y-70201900D02*
X121267100Y-70201900D01*
X130199500Y-66221900D02*
X126219500Y-70201900D01*
X130199500Y-65215800D02*
X130199500Y-66221900D01*
X117546300Y-97083700D02*
X121920000Y-92710000D01*
X109143700Y-97083700D02*
X117546300Y-97083700D01*
X104705200Y-101522200D02*
X109143700Y-97083700D01*
X104705200Y-103669100D02*
X104705200Y-101522200D01*
X104851500Y-103815400D02*
X104705200Y-103669100D01*
X143341000Y-78535600D02*
X143341000Y-78763000D01*
X135909600Y-71104200D02*
X143341000Y-78535600D01*
X135762300Y-71104200D02*
X135909600Y-71104200D01*
X131538800Y-66880700D02*
X135762300Y-71104200D01*
X131538800Y-65866200D02*
X131538800Y-66880700D01*
X114440000Y-86064500D02*
X115056400Y-85448100D01*
X107115100Y-86064500D02*
X114440000Y-86064500D01*
X107115100Y-86064600D02*
X107115100Y-86064500D01*
X104093700Y-86064600D02*
X107115100Y-86064600D01*
X100024200Y-90134100D02*
X104093700Y-86064600D01*
X100024200Y-97160600D02*
X100024200Y-90134100D01*
X103219200Y-100355600D02*
X100024200Y-97160600D01*
X103219200Y-104038600D02*
X103219200Y-100355600D01*
X107405200Y-108224600D02*
X103219200Y-104038600D01*
X107115100Y-86064500D02*
X107115100Y-83057400D01*
X130206400Y-78756600D02*
X130206400Y-86386300D01*
X126306300Y-74856500D02*
X130206400Y-78756600D01*
X122870000Y-74856500D02*
X126306300Y-74856500D01*
X121105200Y-73091700D02*
X122870000Y-74856500D01*
X104649500Y-73091700D02*
X121105200Y-73091700D01*
X100738200Y-69180400D02*
X104649500Y-73091700D01*
X100738200Y-64091200D02*
X100738200Y-69180400D01*
X99433500Y-62786500D02*
X100738200Y-64091200D01*
X99433500Y-54630100D02*
X99433500Y-62786500D01*
X122870000Y-74856500D02*
X122870000Y-74915200D01*
X114831400Y-108139600D02*
X113433700Y-108139600D01*
X121032500Y-114340700D02*
X114831400Y-108139600D01*
X118061100Y-107429700D02*
X110186000Y-107429700D01*
X121550200Y-110918800D02*
X118061100Y-107429700D01*
X128559400Y-50213200D02*
X128559400Y-47514500D01*
X135519700Y-57173500D02*
X128559400Y-50213200D01*
X135519700Y-68346200D02*
X135519700Y-57173500D01*
X144448300Y-77274800D02*
X135519700Y-68346200D01*
X144448300Y-86797100D02*
X144448300Y-77274800D01*
X132396600Y-98848800D02*
X144448300Y-86797100D01*
X132147800Y-98848800D02*
X132396600Y-98848800D01*
X131087500Y-99909100D02*
X132147800Y-98848800D01*
X131087500Y-100802000D02*
X131087500Y-99909100D01*
X131809800Y-101524300D02*
X131087500Y-100802000D01*
X131809800Y-103524300D02*
X131809800Y-101524300D01*
X130810000Y-104524100D02*
X131809800Y-103524300D01*
X130810000Y-107315000D02*
X130810000Y-104524100D01*
X122956900Y-89308500D02*
X124528000Y-90879600D01*
X107647000Y-89308500D02*
X122956900Y-89308500D01*
X144404800Y-114675200D02*
X143510000Y-115570000D01*
X144404800Y-112654800D02*
X144404800Y-114675200D01*
X132080000Y-100330000D02*
X144404800Y-112654800D01*
X97570400Y-126663500D02*
X101684100Y-122549800D01*
X89833500Y-126663500D02*
X97570400Y-126663500D01*
X86360000Y-123190000D02*
X89833500Y-126663500D01*
X135987000Y-67655800D02*
X136502400Y-68171200D01*
X135987000Y-63506400D02*
X135987000Y-67655800D01*
X139700000Y-59793400D02*
X135987000Y-63506400D01*
X139700000Y-45072300D02*
X139700000Y-59793400D01*
X134624000Y-68360500D02*
X136292100Y-70028600D01*
X134624000Y-62551000D02*
X134624000Y-68360500D01*
X129217400Y-57144400D02*
X134624000Y-62551000D01*
X136325200Y-113030000D02*
X133886300Y-110591100D01*
X143510000Y-113030000D02*
X136325200Y-113030000D01*
X113919200Y-125984200D02*
X113919200Y-114807100D01*
X117348000Y-129413000D02*
X113919200Y-125984200D01*
M02*
