M48
;DRILL file {KiCad 4.0.4-stable} date 09/25/16 23:13:34
;FORMAT={-:-/ absolute / inch / decimal}
FMAT,2
INCH,TZ
T1C0.012
T2C0.016
T3C0.024
T4C0.032
T5C0.040
T6C0.043
T7C0.059
T8C0.083
T9C0.098
%
G90
G05
M72
T1
X3.7515Y-3.6896
X3.9874Y-2.5006
X4.29Y-3.135
X4.29Y-3.365
X4.3598Y-4.422
X4.39Y-2.765
X4.44Y-3.85
X4.5575Y-4.56
X4.57Y-2.765
X4.595Y-3.845
X4.6668Y-3.975
X4.775Y-5.0875
X5.0873Y-1.9516
X5.0873Y-2.8519
X5.35Y-4.6806
T2
X3.5898Y-4.1243
X3.7932Y-4.3046
X3.8231Y-2.9303
X3.9005Y-1.8687
X3.9147Y-2.1508
X3.923Y-2.6494
X3.9736Y-4.0102
X3.9873Y-3.042
X4.0033Y-4.8248
X4.0228Y-3.3936
X4.0635Y-2.7462
X4.1126Y-4.6167
X4.128Y-4.0872
X4.141Y-2.6649
X4.149Y-4.0052
X4.1992Y-2.8012
X4.1992Y-3.0752
X4.2043Y-4.2
X4.209Y-3.431
X4.2171Y-3.27
X4.2286Y-4.2608
X4.2286Y-4.0484
X4.2381Y-3.5161
X4.2605Y-3.1991
X4.2667Y-3.0676
X4.2945Y-3.0188
X4.31Y-3.0481
X4.3122Y-4.4545
X4.3161Y-3.9862
X4.3202Y-3.3396
X4.338Y-4.2295
X4.3419Y-4.2906
X4.3583Y-3.5757
X4.4568Y-3.256
X4.4574Y-2.8027
X4.4649Y-2.331
X4.4659Y-4.2575
X4.485Y-4.52
X4.5296Y-3.7976
X4.5298Y-3.3641
X4.5425Y-2.6387
X4.596Y-2.9454
X4.5973Y-3.2015
X4.6639Y-3.1148
X4.7603Y-4.4529
X4.7651Y-4.5016
X4.7854Y-4.3669
X4.7943Y-4.0965
X4.8374Y-2.9494
X4.8719Y-2.972
X4.884Y-2.6548
X4.9027Y-3.5779
X4.9211Y-3.0641
X4.9238Y-2.7215
X4.9486Y-3.6596
X4.9561Y-2.7392
X4.9679Y-2.9804
X4.9936Y-3.9871
X5.0126Y-2.2502
X5.0138Y-2.758
X5.0614Y-1.8706
X5.0873Y-2.2498
X5.126Y-2.5676
X5.1262Y-3.401
X5.1335Y-2.4921
X5.1787Y-2.5932
X5.182Y-2.5564
X5.2711Y-4.354
X5.3658Y-2.757
X5.3741Y-2.6839
X5.6433Y-3.1009
T3
X3.75Y-4.85
X3.75Y-4.95
X3.75Y-5.05
X4.065Y-5.01
X4.165Y-5.01
X4.265Y-5.01
X4.52Y-5.095
X4.62Y-5.095
X4.72Y-5.095
X5.65Y-4.45
X5.65Y-4.55
X5.65Y-4.65
T4
X3.55Y-4.
X3.65Y-4.
X4.Y-3.55
X4.Y-3.75
X4.Y-4.5
X4.1Y-4.5
X4.35Y-1.9
X4.35Y-2.
X4.35Y-2.1
X4.35Y-2.2
X4.65Y-1.9
X4.65Y-2.
X4.65Y-2.1
X4.65Y-2.2
X4.75Y-4.05
X4.75Y-4.15
X4.8Y-3.65
X4.85Y-3.725
X4.85Y-4.5
X4.85Y-4.7
X4.9Y-3.65
X5.1Y-3.95
X5.1Y-4.15
X5.15Y-4.025
X5.15Y-4.225
X5.15Y-4.5
X5.15Y-4.7
X5.2Y-3.95
X5.2Y-4.15
X5.4Y-5.65
X5.425Y-5.
X5.425Y-5.1
X5.5Y-5.65
T5
X5.65Y-5.2
X5.65Y-5.3
X5.65Y-5.4
X5.65Y-5.5
X5.65Y-5.6
X5.75Y-5.2
X5.75Y-5.3
X5.75Y-5.4
X5.75Y-5.5
X5.75Y-5.6
T6
X3.3516Y-1.7745
X3.3516Y-2.6245
X3.3516Y-3.3245
X3.45Y-1.7745
X3.45Y-2.6245
X3.45Y-3.3245
X3.5484Y-1.7745
X3.5484Y-2.6245
X3.5484Y-3.3245
X5.4016Y-1.7745
X5.4016Y-2.6245
X5.4266Y-3.3245
X5.5Y-1.7745
X5.5Y-2.6245
X5.525Y-3.3245
X5.5984Y-1.7745
X5.5984Y-2.6245
X5.6234Y-3.3245
T7
X3.55Y-4.65
X3.55Y-5.45
X4.15Y-5.45
X4.75Y-5.45
X5.3Y-5.45
T8
X3.2729Y-2.05
X3.2729Y-2.9
X3.2729Y-3.6
X3.6271Y-2.05
X3.6271Y-2.9
X3.6271Y-3.6
X5.3229Y-2.05
X5.3229Y-2.9
X5.3479Y-3.6
X5.6771Y-2.05
X5.6771Y-2.9
X5.7021Y-3.6
T9
X3.25Y-4.65
X3.25Y-5.45
X3.4Y-4.5
X3.4Y-4.85
X3.4Y-5.3
X3.4Y-5.65
X3.85Y-5.45
X4.Y-5.3
X4.Y-5.65
X4.45Y-5.45
X4.6Y-5.3
X4.6Y-5.65
X5.Y-5.45
X5.15Y-5.3
X5.15Y-5.65
T0
M30
